<svg xmlns="http://www.w3.org/2000/svg" width="11.826" height="17" viewBox="0 0 11.826 17"><path d="M18.306,15.483V2.918A1.483,1.483,0,0,0,16.828,1.44H7.958A1.483,1.483,0,0,0,6.48,2.918V16.962A1.483,1.483,0,0,0,7.958,18.44h8.87c.687,0,1.478,0,1.478-.739v-.37H8.328a.741.741,0,0,1-.739-.739V15.483H18.306ZM8.328,4.4a.371.371,0,0,1,.37-.37h7.391a.371.371,0,0,1,.37.37v.739a.371.371,0,0,1-.37.37H8.7a.371.371,0,0,1-.37-.37V4.4Zm0,2.957a.371.371,0,0,1,.37-.37h7.391a.371.371,0,0,1,.37.37v.739a.371.371,0,0,1-.37.37H8.7a.371.371,0,0,1-.37-.37Z" transform="translate(-6.48 -1.44)" fill="#f60"/></svg>