<svg xmlns="http://www.w3.org/2000/svg" width="19.175" height="17.805" viewBox="0 0 19.175 17.805"><path d="M20.7,9.538H14.4l-1.913-5.71a.693.693,0,0,0-1.3,0L9.274,9.538H2.935a.687.687,0,0,0-.685.685.5.5,0,0,0,.013.116.658.658,0,0,0,.287.484l5.175,3.647L5.738,20.243a.687.687,0,0,0,.235.77.662.662,0,0,0,.385.167.839.839,0,0,0,.428-.154l5.05-3.6,5.05,3.6a.8.8,0,0,0,.428.154.615.615,0,0,0,.381-.167.678.678,0,0,0,.235-.77l-1.986-5.774,5.132-3.681.124-.107a.718.718,0,0,0,.223-.458A.725.725,0,0,0,20.7,9.538Z" transform="translate(-2.25 -3.375)" fill="#f60"/></svg>