<svg xmlns="http://www.w3.org/2000/svg" width="28.5" height="40.969" viewBox="0 0 28.5 40.969"><path d="M34.98,35.284V5A3.573,3.573,0,0,0,31.417,1.44H10.042A3.573,3.573,0,0,0,6.48,5V38.846a3.573,3.573,0,0,0,3.562,3.563H31.417c1.655,0,3.563,0,3.563-1.781v-.891H10.933a1.786,1.786,0,0,1-1.781-1.781V35.284H34.98ZM10.933,8.565a.893.893,0,0,1,.891-.891H29.636a.893.893,0,0,1,.891.891v1.781a.893.893,0,0,1-.891.891H11.824a.893.893,0,0,1-.891-.891V8.565Zm0,7.125a.893.893,0,0,1,.891-.891H29.636a.893.893,0,0,1,.891.891v1.781a.893.893,0,0,1-.891.891H11.824a.893.893,0,0,1-.891-.891Z" transform="translate(-6.48 -1.44)" fill="#00be46"/></svg>