<svg xmlns="http://www.w3.org/2000/svg" width="15.303" height="12.52" viewBox="0 0 15.303 12.52"><g transform="translate(-1.999 -6)"><g transform="translate(1.999 6)"><path d="M15.24,22.591a1.046,1.046,0,0,1-.741,0L10,20.877v3.886a.348.348,0,0,0,.224.325l4.521,1.722a.347.347,0,0,0,.247,0l4.521-1.722a.348.348,0,0,0,.224-.325V20.877Z" transform="translate(-7.218 -15.703)" fill="#f60"/><path d="M17.078,8.805l-7.3-2.782a.35.35,0,0,0-.248,0l-7.3,2.782a.348.348,0,0,0,0,.65l7.3,2.782a.349.349,0,0,0,.248,0l7.3-2.782a.348.348,0,0,0,0-.65Z" transform="translate(-1.999 -6)" fill="#f60"/><path d="M6.348,22.645A.348.348,0,0,1,6,22.3V15.872a.348.348,0,1,1,.7,0V22.3A.348.348,0,0,1,6.348,22.645Z" transform="translate(-4.609 -12.212)" fill="#f60"/><path d="M5.043,34A1.044,1.044,0,0,0,4,35.043v1.391a.348.348,0,0,0,.348.348H5.739a.348.348,0,0,0,.348-.348V35.043A1.044,1.044,0,0,0,5.043,34Z" transform="translate(-3.304 -24.262)" fill="#f60"/></g></g></svg>