<svg xmlns="http://www.w3.org/2000/svg" width="41.764" height="34.169" viewBox="0 0 41.764 34.169"><g transform="translate(-1.999 -6)"><g transform="translate(1.999 6)"><path d="M24.3,25.553a2.855,2.855,0,0,1-2.023,0L10,20.877v10.6a.949.949,0,0,0,.612.887l12.339,4.7a.948.948,0,0,0,.675,0l12.339-4.7a.949.949,0,0,0,.612-.887v-10.6Z" transform="translate(-2.406 -6.757)" fill="#b306f2"/><path d="M43.152,13.655,23.22,6.062a.956.956,0,0,0-.677,0L2.611,13.655a.949.949,0,0,0,0,1.774l19.932,7.593a.953.953,0,0,0,.677,0l19.932-7.593a.949.949,0,0,0,0-1.774Z" transform="translate(-1.999 -6)" fill="#b306f2"/><path d="M6.949,34.959A.949.949,0,0,1,6,34.01V16.473a.949.949,0,0,1,1.9,0V34.01A.949.949,0,0,1,6.949,34.959Z" transform="translate(-2.203 -6.485)" fill="#b306f2"/><path d="M6.847,34A2.851,2.851,0,0,0,4,36.847v3.8a.949.949,0,0,0,.949.949h3.8a.949.949,0,0,0,.949-.949v-3.8A2.851,2.851,0,0,0,6.847,34Z" transform="translate(-2.101 -7.424)" fill="#b306f2"/></g></g></svg>