<svg xmlns="http://www.w3.org/2000/svg" width="27.724" height="27.724" viewBox="0 0 27.724 27.724"><path d="M25.743,2.25H1.974A1.989,1.989,0,0,0,0,4.249V27.975a1.989,1.989,0,0,0,1.974,2H25.743a1.994,1.994,0,0,0,1.98-2V4.249A1.994,1.994,0,0,0,25.743,2.25ZM8.379,26.013H4.27V12.783H8.385V26.013ZM6.324,10.976A2.382,2.382,0,1,1,8.707,8.593a2.384,2.384,0,0,1-2.383,2.382ZM23.782,26.013H19.673V19.577c0-1.535-.031-3.509-2.135-3.509-2.141,0-2.469,1.671-2.469,3.4v6.547H10.959V12.783H14.9v1.807h.056a4.328,4.328,0,0,1,3.892-2.135c4.159,0,4.932,2.741,4.932,6.306Z" transform="translate(0 -2.25)" fill="#0077b5"/></svg>