<svg xmlns="http://www.w3.org/2000/svg" width="27.724" height="27.724" viewBox="0 0 27.724 27.724"><path d="M24.753,2.25H2.97A2.971,2.971,0,0,0,0,5.22V27a2.971,2.971,0,0,0,2.97,2.97H24.753A2.971,2.971,0,0,0,27.724,27V5.22A2.971,2.971,0,0,0,24.753,2.25Zm-3.026,9.827c.012.173.012.353.012.526A11.469,11.469,0,0,1,10.192,24.15a11.494,11.494,0,0,1-6.232-1.819,8.551,8.551,0,0,0,.978.05,8.137,8.137,0,0,0,5.037-1.733,4.064,4.064,0,0,1-3.793-2.816,4.374,4.374,0,0,0,1.832-.074,4.059,4.059,0,0,1-3.249-3.985v-.05a4.056,4.056,0,0,0,1.832.514A4.05,4.05,0,0,1,4.79,10.858,4.008,4.008,0,0,1,5.341,8.81a11.524,11.524,0,0,0,8.367,4.245,4.067,4.067,0,0,1,6.925-3.707,7.953,7.953,0,0,0,2.574-.978A4.048,4.048,0,0,1,21.424,10.6a8.077,8.077,0,0,0,2.339-.631A8.543,8.543,0,0,1,21.727,12.077Z" transform="translate(0 -2.25)" fill="#00acee"/></svg>