<svg xmlns="http://www.w3.org/2000/svg" width="40.003" height="35.991" viewBox="0 0 40.003 35.991"><g transform="translate(-1001 -522.009)"><path d="M16.389,18.438A9.219,9.219,0,1,0,7.17,9.219,9.221,9.221,0,0,0,16.389,18.438Zm8.194,2.049H21.056a11.144,11.144,0,0,1-9.334,0H8.194A8.194,8.194,0,0,0,0,28.681V29.7a3.074,3.074,0,0,0,3.073,3.073H29.7A3.074,3.074,0,0,0,32.778,29.7V28.681A8.194,8.194,0,0,0,24.583,20.486Z" transform="translate(1001 522.009)" fill="#34444e"/><g transform="translate(1021.802 538.798)"><g transform="translate(0.202 0.202)" fill="#fff7f2" stroke="#34444e" stroke-width="1"><circle cx="9.5" cy="9.5" r="9.5" stroke="none"/><circle cx="9.5" cy="9.5" r="9" fill="none"/></g><path d="M2.088,6.425A1.392,1.392,0,1,0,.7,5.033,1.393,1.393,0,0,0,2.088,6.425Zm9.742,0a1.392,1.392,0,1,0-1.392-1.392A1.393,1.393,0,0,0,11.83,6.425Zm.7.7H11.134a1.388,1.388,0,0,0-.981.4A3.181,3.181,0,0,1,11.786,9.9h1.435a.7.7,0,0,0,.7-.7v-.7A1.393,1.393,0,0,0,12.526,7.121Zm-5.567,0A2.436,2.436,0,1,0,4.523,4.686,2.434,2.434,0,0,0,6.959,7.121Zm1.67.7h-.18a3.363,3.363,0,0,1-2.979,0h-.18a2.506,2.506,0,0,0-2.505,2.505v.626a1.044,1.044,0,0,0,1.044,1.044H10.09a1.044,1.044,0,0,0,1.044-1.044v-.626A2.506,2.506,0,0,0,8.629,7.817ZM3.764,7.526a1.388,1.388,0,0,0-.981-.4H1.392A1.393,1.393,0,0,0,0,8.513v.7a.7.7,0,0,0,.7.7H2.129A3.189,3.189,0,0,1,3.764,7.526Z" transform="translate(2.743 2.58)" fill="#34444e"/></g></g></svg>