<svg xmlns="http://www.w3.org/2000/svg" width="50" height="45" viewBox="0 0 50 45"><g transform="translate(-395 -523)"><path d="M20.484,23.045A11.522,11.522,0,1,0,8.962,11.522,11.525,11.525,0,0,0,20.484,23.045Zm10.242,2.561H26.318a13.929,13.929,0,0,1-11.666,0H10.242A10.241,10.241,0,0,0,0,35.848v1.28a3.842,3.842,0,0,0,3.841,3.841H37.128a3.842,3.842,0,0,0,3.841-3.841v-1.28A10.241,10.241,0,0,0,30.727,25.605Z" transform="translate(395 523)" fill="#34444e"/><g transform="translate(-1457 -5291)"><circle cx="12" cy="12" r="12" transform="translate(1878 5835)" fill="#e70000"/><path d="M8.036.491l-1.8,3.656L2.2,4.735a.884.884,0,0,0-.489,1.508L4.628,9.087,3.938,13.1a.883.883,0,0,0,1.281.931l3.609-1.9,3.609,1.9a.884.884,0,0,0,1.281-.931l-.69-4.018,2.919-2.844a.884.884,0,0,0-.489-1.508l-4.034-.588L9.621.491a.884.884,0,0,0-1.585,0Z" transform="translate(1881.172 5839.931)" fill="#fff"/></g></g></svg>