<svg xmlns="http://www.w3.org/2000/svg" width="50" height="44.984" viewBox="0 0 50 44.984"><g transform="translate(-395 -369.016)"><path d="M20.484,23.045A11.522,11.522,0,1,0,8.962,11.522,11.525,11.525,0,0,0,20.484,23.045Zm10.242,2.561H26.318a13.929,13.929,0,0,1-11.666,0H10.242A10.241,10.241,0,0,0,0,35.848v1.28a3.842,3.842,0,0,0,3.841,3.841H37.128a3.842,3.842,0,0,0,3.841-3.841v-1.28A10.241,10.241,0,0,0,30.727,25.605Z" transform="translate(395 369.016)" fill="#34444e"/><g transform="translate(-1457 -5445)"><circle cx="12" cy="12" r="12" transform="translate(1878 5835)" fill="#00be46"/><text transform="translate(1883 5852)" fill="#fff" font-size="13" font-family="SegoeUI, Segoe UI"><tspan x="0" y="0">P+</tspan></text></g></g></svg>