<svg xmlns="http://www.w3.org/2000/svg" width="50" height="44.969" viewBox="0 0 50 44.969"><g transform="translate(-395 -446.031)"><path d="M20.484,23.045A11.522,11.522,0,1,0,8.962,11.522,11.525,11.525,0,0,0,20.484,23.045Zm10.242,2.561H26.318a13.929,13.929,0,0,1-11.666,0H10.242A10.241,10.241,0,0,0,0,35.848v1.28a3.842,3.842,0,0,0,3.841,3.841H37.128a3.842,3.842,0,0,0,3.841-3.841v-1.28A10.241,10.241,0,0,0,30.727,25.605Z" transform="translate(395 446.031)" fill="#34444e"/><circle cx="12" cy="12" r="12" transform="translate(421 467)" fill="#00be46"/><path d="M2.532,7.313A1.688,1.688,0,1,0,.844,5.626,1.689,1.689,0,0,0,2.532,7.313Zm11.815,0a1.688,1.688,0,1,0-1.688-1.688A1.689,1.689,0,0,0,14.346,7.313Zm.844.844H13.5a1.683,1.683,0,0,0-1.189.491,3.858,3.858,0,0,1,1.981,2.885h1.741a.843.843,0,0,0,.844-.844V9.845A1.689,1.689,0,0,0,15.19,8.157Zm-6.751,0A2.954,2.954,0,1,0,5.485,5.2,2.952,2.952,0,0,0,8.439,8.157ZM10.464,9h-.219A4.078,4.078,0,0,1,6.633,9H6.414a3.039,3.039,0,0,0-3.038,3.038v.76a1.266,1.266,0,0,0,1.266,1.266h7.6A1.266,1.266,0,0,0,13.5,12.8v-.76A3.039,3.039,0,0,0,10.464,9Zm-5.9-.353a1.683,1.683,0,0,0-1.189-.491H1.688A1.689,1.689,0,0,0,0,9.845v.844a.843.843,0,0,0,.844.844H2.582A3.867,3.867,0,0,1,4.565,8.648Z" transform="translate(425 470.75)" fill="#fff"/></g></svg>