<svg xmlns="http://www.w3.org/2000/svg" width="40.003" height="35.991" viewBox="0 0 40.003 35.991"><g transform="translate(-1042 -522.009)"><path d="M16.389,18.438A9.219,9.219,0,1,0,7.17,9.219,9.221,9.221,0,0,0,16.389,18.438Zm8.194,2.049H21.056a11.144,11.144,0,0,1-9.334,0H8.194A8.194,8.194,0,0,0,0,28.681V29.7a3.074,3.074,0,0,0,3.073,3.073H29.7A3.074,3.074,0,0,0,32.778,29.7V28.681A8.194,8.194,0,0,0,24.583,20.486Z" transform="translate(1042 522.009)" fill="#34444e"/><g transform="translate(1062.802 538.798)"><g transform="translate(0.202 0.202)" fill="#fff7f2" stroke="#34444e" stroke-width="1"><circle cx="9.5" cy="9.5" r="9.5" stroke="none"/><circle cx="9.5" cy="9.5" r="9" fill="none"/></g><path d="M7.076.419,5.535,3.543l-3.447.5A.755.755,0,0,0,1.67,5.334l2.494,2.43L3.574,11.2a.755.755,0,0,0,1.095.8l3.084-1.621,3.084,1.621a.755.755,0,0,0,1.095-.8l-.59-3.433,2.494-2.43a.755.755,0,0,0-.418-1.288l-3.447-.5L8.43.419a.756.756,0,0,0-1.354,0Z" transform="translate(1.949 3.661)" fill="#34444e"/></g></g></svg>