<svg xmlns="http://www.w3.org/2000/svg" width="50" height="45" viewBox="0 0 50 45"><g transform="translate(-395 -292)"><path d="M20.484,23.045A11.522,11.522,0,1,0,8.962,11.522,11.525,11.525,0,0,0,20.484,23.045Zm10.242,2.561H26.318a13.929,13.929,0,0,1-11.666,0H10.242A10.241,10.241,0,0,0,0,35.848v1.28a3.842,3.842,0,0,0,3.841,3.841H37.128a3.842,3.842,0,0,0,3.841-3.841v-1.28A10.241,10.241,0,0,0,30.727,25.605Z" transform="translate(395 292)" fill="#34444e"/><path d="M12,0A12,12,0,1,1,0,12,12,12,0,0,1,12,0Z" transform="translate(421 313)" fill="#e70000"/><path d="M4.5,13.851v2.461H6.961L14.22,9.053,11.759,6.592Zm11.624-6.7a.654.654,0,0,0,0-.925L14.588,4.688a.654.654,0,0,0-.925,0l-1.2,1.2,2.461,2.461,1.2-1.2Z" transform="translate(422.592 314.596)" fill="#fff"/></g></svg>