<svg xmlns="http://www.w3.org/2000/svg" width="40.003" height="35.991" viewBox="0 0 40.003 35.991"><g transform="translate(-960 -522.009)"><path d="M16.389,18.438A9.219,9.219,0,1,0,7.17,9.219,9.221,9.221,0,0,0,16.389,18.438Zm8.194,2.049H21.056a11.144,11.144,0,0,1-9.334,0H8.194A8.194,8.194,0,0,0,0,28.681V29.7a3.074,3.074,0,0,0,3.073,3.073H29.7A3.074,3.074,0,0,0,32.778,29.7V28.681A8.194,8.194,0,0,0,24.583,20.486Z" transform="translate(960 522.009)" fill="#34444e"/><g transform="translate(980.802 538.798)"><g transform="translate(0.202 0.202)" fill="#fff7f2" stroke="#34444e" stroke-width="1"><circle cx="9.5" cy="9.5" r="9.5" stroke="none"/><circle cx="9.5" cy="9.5" r="9" fill="none"/></g><path d="M4.5,12.58v2.127H6.627L12.9,8.434,10.773,6.307ZM14.545,6.789a.565.565,0,0,0,0-.8L13.217,4.662a.565.565,0,0,0-.8,0L11.38,5.7l2.127,2.127,1.038-1.038Z" transform="translate(0.539 -0.274)" fill="#34444e"/></g></g></svg>